<?xml version="1.0" encoding="UTF-8"?>
<svg width="13px" height="10px" viewBox="0 0 13 10" version="1.1" xmlns="http://www.w3.org/2000/svg" xmlns:xlink="http://www.w3.org/1999/xlink">
    <!-- Generator: Sketch 49.3 (51167) - http://www.bohemiancoding.com/sketch -->
    <title>check</title>
    <desc>Created with Sketch.</desc>
    <defs></defs>
    <g id="Page-1" stroke="none" stroke-width="1" fill="none" fill-rule="evenodd">
        <g id="06.-Create-An-Account-Step-1" transform="translate(-544.000000, -532.000000)" fill="#FFFFFF" fill-rule="nonzero">
            <g id="Group-3" transform="translate(538.000000, 120.000000)">
                <path d="M6.15,417.5 C6.05,417.4 6,417.25 6,417.15 C6,417.05 6.05,416.9 6.15,416.8 L6.85,416.1 C7.05,415.9 7.35,415.9 7.55,416.1 L7.6,416.15 L10.35,419.1 C10.45,419.2 10.6,419.2 10.7,419.1 L17.4,412.15 L17.45,412.15 C17.65,411.95 17.95,411.95 18.15,412.15 L18.85,412.85 C19.05,413.05 19.05,413.35 18.85,413.55 L10.85,421.85 C10.75,421.95 10.65,422 10.5,422 C10.35,422 10.25,421.95 10.15,421.85 L6.25,417.65 L6.15,417.5 Z" id="check"></path>
            </g>
        </g>
    </g>
</svg>