<?xml version="1.0" encoding="UTF-8"?>
<svg width="20px" height="20px" viewBox="0 0 20 20" version="1.1" xmlns="http://www.w3.org/2000/svg" xmlns:xlink="http://www.w3.org/1999/xlink">
    <!-- Generator: Sketch 49.3 (51167) - http://www.bohemiancoding.com/sketch -->
    <title>close</title>
    <desc>Created with Sketch.</desc>
    <defs></defs>
    <g id="Page-1" stroke="none" stroke-width="1" fill="none" fill-rule="evenodd">
        <g id="06.1.-Create-An-Account-Step-2" transform="translate(-1376.000000, -38.000000)" fill="#668BAB" fill-rule="nonzero">
            <path d="M1387.14254,47.9999948 L1395.76339,56.6208196 C1396.07886,56.9363276 1396.07886,57.4478513 1395.76343,57.7633983 C1395.60574,57.9211328 1395.39894,58 1395.19218,58 C1394.98542,58 1394.77863,57.9211328 1394.62089,57.7633593 L1386.00002,49.1425067 L1377.37921,57.7633202 C1377.22144,57.9211328 1377.01468,58 1376.80792,58 C1376.60116,58 1376.39437,57.9211718 1376.23663,57.7633593 C1375.92112,57.4478513 1375.92112,56.9363276 1376.23663,56.6208196 L1384.85749,47.9999772 L1376.23663,39.3791315 C1375.92112,39.0636236 1375.92112,38.5520999 1376.23663,38.236631 C1376.5521,37.921123 1377.06366,37.921123 1377.37913,38.236631 L1386,46.8574677 L1394.62086,38.236631 C1394.93637,37.921123 1395.44789,37.921123 1395.7634,38.236631 C1396.07887,38.5521389 1396.07887,39.0636626 1395.7634,39.3791315 L1387.14254,47.9999948 Z" id="close"></path>
        </g>
    </g>
</svg>