<?xml version="1.0" encoding="UTF-8"?>
<svg width="18px" height="16px" viewBox="0 0 18 16" version="1.1" xmlns="http://www.w3.org/2000/svg" xmlns:xlink="http://www.w3.org/1999/xlink">
    <!-- Generator: Sketch 49.3 (51167) - http://www.bohemiancoding.com/sketch -->
    <title>heart</title>
    <desc>Created with Sketch.</desc>
    <defs></defs>
    <g id="Page-1" stroke="none" stroke-width="1" fill="none" fill-rule="evenodd">
        <g id="07.-Ad-A-House" transform="translate(-449.000000, -40.000000)" fill="#9FAFBE" fill-rule="nonzero">
            <path d="M465.686703,41.5717444 C464.798902,40.558179 463.567273,40 462.21875,40 C460.322141,40 459.121379,41.1397039 458.448066,42.0958243 C458.273375,42.3439274 458.12477,42.5927026 458,42.8267983 C457.87523,42.5927026 457.72666,42.3439274 457.551934,42.0958243 C456.878621,41.1397039 455.677859,40 453.78125,40 C452.432727,40 451.201098,40.5582144 450.313262,41.5717798 C449.466418,42.5386534 449,43.8335721 449,45.2179834 C449,46.7249606 449.584754,48.1265984 450.840254,49.6289418 C451.962336,50.9716843 453.576605,52.3557419 455.445898,53.9584372 C456.142449,54.5556676 456.862766,55.1732725 457.629629,55.8483578 L457.652656,55.8686617 C457.752078,55.9562441 457.876039,56 458,56 C458.123961,56 458.247922,55.9562088 458.347344,55.8686617 L458.370371,55.8483578 C459.137234,55.1732725 459.857551,54.5557029 460.554207,53.9583665 C462.423395,52.3557772 464.037664,50.9717196 465.159746,49.6289418 C466.415246,48.126563 467,46.7249606 467,45.2179834 C467,43.8335721 466.533582,42.5386534 465.686703,41.5717444 Z M459.870066,53.1507402 C459.269598,53.6655524 458.651621,54.195398 458,54.7653561 C457.348414,54.1954688 456.730402,53.6655878 456.129828,53.1506694 C452.471504,50.0140783 450.054688,47.9419183 450.054688,45.2179834 C450.054688,44.0920748 450.42752,43.0463204 451.104523,42.2733945 C451.789297,41.4916963 452.739887,41.0611768 453.78125,41.0611768 C455.227191,41.0611768 456.161891,41.9574468 456.691344,42.709326 C457.16627,43.3836685 457.414086,44.0634584 457.498602,44.3244018 C457.569301,44.5428273 457.771695,44.6906493 458,44.6906493 C458.228305,44.6906493 458.430699,44.5428273 458.501398,44.3244018 C458.585914,44.0634584 458.83373,43.3836685 459.308656,42.7092906 C459.838109,41.9574468 460.772809,41.0611768 462.21875,41.0611768 C463.260113,41.0611768 464.210703,41.4916963 464.895441,42.2733945 C465.57248,43.0463204 465.945312,44.0920748 465.945312,45.2179834 C465.945312,47.9419183 463.528496,50.0140783 459.870066,53.1507402 Z" id="heart"></path>
        </g>
    </g>
</svg>