<?xml version="1.0" encoding="UTF-8"?>
<svg width="18px" height="14px" viewBox="0 0 18 14" version="1.1" xmlns="http://www.w3.org/2000/svg" xmlns:xlink="http://www.w3.org/1999/xlink">
    <!-- Generator: Sketch 49.3 (51167) - http://www.bohemiancoding.com/sketch -->
    <title>message</title>
    <desc>Created with Sketch.</desc>
    <defs></defs>
    <g id="Page-1" stroke="none" stroke-width="1" fill="none" fill-rule="evenodd">
        <g id="07.-Ad-A-House" transform="translate(-317.000000, -41.000000)" fill="#9FAFBE" fill-rule="nonzero">
            <path d="M332.802598,41 L319.201116,41 C317.986964,41 317,42.0087004 317,43.2495922 L317,52.7504078 C317,53.9912996 317.986964,55 319.201116,55 L332.798873,55 C334.013025,55 334.999989,53.9912996 334.999989,52.7504078 L334.999989,43.2533986 C335.003714,42.0125068 334.01675,41 332.802598,41 Z M333.998128,52.7504078 C333.998128,53.4241436 333.461815,53.9722675 332.802598,53.9722675 L319.201116,53.9722675 C318.541899,53.9722675 318.005586,53.4241436 318.005586,52.7504078 L318.005586,43.2533986 C318.005586,42.5796629 318.541899,42.0315389 319.201116,42.0315389 L332.798873,42.0315389 C333.458091,42.0315389 333.994403,42.5796629 333.994403,43.2533986 L333.994403,52.7504078 L333.998128,52.7504078 Z M328.351949,47.8820011 L332.754181,43.8471996 C332.959022,43.6568787 332.977644,43.3333333 332.791425,43.120174 C332.605205,42.9108211 332.288632,42.891789 332.080066,43.0821098 L326.009306,48.6508972 L324.824949,47.5698749 C324.821224,47.5660685 324.8175,47.5622621 324.8175,47.5584557 C324.791429,47.5318108 324.765359,47.5089723 324.735563,47.4861338 L319.916199,43.0783034 C319.707633,42.8879826 319.39106,42.9070147 319.20484,43.120174 C319.018621,43.3333333 319.037243,43.6568787 319.245809,43.8471996 L323.700182,47.9162588 L319.264431,52.1604133 C319.063314,52.3545405 319.05214,52.6780859 319.242084,52.8874388 C319.342643,52.9940185 319.476721,53.0511147 319.610799,53.0511147 C319.733704,53.0511147 319.856609,53.0054377 319.953443,52.9140837 L324.456234,48.6090266 L325.677835,49.7243067 C325.774669,49.8118543 325.89385,49.8537249 326.01303,49.8537249 C326.132211,49.8537249 326.255116,49.8080479 326.348225,49.7205003 L327.603346,48.5709625 L332.080066,52.9178902 C332.1769,53.0130506 332.303529,53.0587276 332.426434,53.0587276 C332.560512,53.0587276 332.690866,53.0054377 332.791425,52.8988581 C332.981369,52.6933116 332.97392,52.3659598 332.772803,52.1718325 L328.351949,47.8820011 Z" id="message"></path>
        </g>
    </g>
</svg>