<?xml version="1.0" encoding="UTF-8" standalone="no"?>
<svg width="42px" height="36px" viewBox="0 0 42 36" version="1.1" xmlns="http://www.w3.org/2000/svg" xmlns:xlink="http://www.w3.org/1999/xlink">
    <!-- Generator: Sketch 49.3 (51167) - http://www.bohemiancoding.com/sketch -->
    <title>Add image</title>
    <desc>Created with Sketch.</desc>
    <defs>
        <linearGradient x1="3.14988057%" y1="-10.8506944%" x2="102.335042%" y2="109.103733%" id="linearGradient-1">
            <stop stop-color="#2694E1" offset="0%"></stop>
            <stop stop-color="#58A7D7" offset="100%"></stop>
        </linearGradient>
        <path d="M84.0136667,60.8534504 C88.1796667,60.8534504 91.5563333,64.2441192 91.5563333,68.4263905 C91.5563333,72.6089964 88.1796667,76 84.0136667,76 C79.8476667,76 76.4713333,72.6089964 76.4713333,68.4263905 C76.4713333,64.2441192 79.8476667,60.8534504 84.0136667,60.8534504 Z M88.2623333,69.3240977 C88.802,69.3240977 89.2413333,68.8775871 89.2413333,68.3356825 C89.2413333,67.793778 88.802,67.3472674 88.2623333,67.3472674 L84.9843333,67.3472674 L84.9843333,64.1534113 C84.9843333,63.6115068 84.5396667,63.1706864 84,63.1706864 C83.4603333,63.1706864 83.0156667,63.6118415 83.0156667,64.1534113 L83.0156667,67.3472674 L79.7513333,67.3472674 C79.2113333,67.3472674 78.7723333,67.793778 78.7723333,68.3356825 C78.7723333,68.8775871 79.2116667,69.3240977 79.7513333,69.3240977 L83.0156667,69.3240977 L83.0156667,72.7000391 C83.0156667,73.2422783 83.4603333,73.682764 84,73.682764 C84.5396667,73.682764 84.9843333,73.2419436 84.9843333,72.7000391 L84.9843333,69.3240977 L88.2623333,69.3240977 Z M103.363,40 C104.267667,40 105,40.8090076 105,41.7174257 L105,66.7789204 C105,67.6873385 104.267667,68.3353478 103.363,68.3353478 L93.525,68.3353478 C93.525,63.0635774 89.2583333,58.7855775 84.0136667,58.7855775 C78.7693333,58.7855775 74.5026667,63.0635774 74.5026667,68.3353478 L64.6646667,68.3353478 C63.76,68.3353478 63,67.6876732 63,66.7789204 L63,41.7174257 C63,40.8090076 63.76,40 64.6646667,40 L103.363,40 Z M88.9416667,46.0121613 C90.217,46.0121613 91.2543333,47.0537962 91.2543333,48.3344181 C91.2543333,49.6150399 90.2166667,50.6560054 88.9416667,50.6560054 C87.6666667,50.6560054 86.6293333,49.6147052 86.629,48.3344181 C86.629,47.0534615 87.6663333,46.0121613 88.9416667,46.0121613 Z M95.625,51.3518791 C95.7533333,51.2230136 95.96,51.2230136 96.0883333,51.3518791 L102.046667,57.3369284 L102.046667,42.9652454 L65.953,42.9652454 L65.953,55.7353144 L70.3116667,51.3706231 C70.4396667,51.2417576 70.6593333,51.2417576 70.7873333,51.3706231 L73.522,54.1162951 L79.5123333,48.101456 C79.6406667,47.9725905 79.8476667,47.9725905 79.976,48.101456 L89.4203333,57.5836138 L95.625,51.3518791 Z" id="path-2"></path>
    </defs>
    <g id="Page-1" stroke="none" stroke-width="1" fill="none" fill-rule="evenodd">
        <g id="08.1.-Ad-A-House-Step-3" transform="translate(-894.000000, -515.000000)" fill-rule="nonzero">
            <g id="Group-2-Copy-11" transform="translate(831.000000, 475.000000)">
                <g id="Add-image">
                    <use fill="url(#linearGradient-1)" fill-rule="evenodd" xlink:href="#path-2"></use>
                    <use fill="#9FAFBE" fill-rule="evenodd" xlink:href="#path-2"></use>
                </g>
            </g>
        </g>
    </g>
</svg>