<?xml version="1.0" encoding="UTF-8" standalone="no"?>
<svg width="22px" height="20px" viewBox="0 0 22 20" version="1.1" xmlns="http://www.w3.org/2000/svg" xmlns:xlink="http://www.w3.org/1999/xlink">
    <!-- Generator: Sketch 49.3 (51167) - http://www.bohemiancoding.com/sketch -->
    <title>attach</title>
    <desc>Created with Sketch.</desc>
    <defs></defs>
    <g id="Page-1" stroke="none" stroke-width="1" fill="none" fill-rule="evenodd">
        <g id="14.-Message" transform="translate(-1249.000000, -932.000000)" fill="#2995E1" fill-rule="nonzero">
            <path d="M1265.36016,940.085302 C1265.36016,940.085302 1266.24988,939.418517 1265.57262,938.751731 C1264.89537,938.084945 1264.23696,938.945406 1264.23696,938.945406 L1257.42886,945.656857 C1257.42886,945.656857 1255.83433,947.685086 1254.62194,946.458715 C1253.411,945.230915 1255.43479,943.691519 1255.43479,943.691519 L1264.36168,934.893951 C1264.36168,934.893951 1266.44494,932.632025 1268.40347,934.560915 C1270.35911,936.49052 1268.05759,938.54805 1268.05759,938.54805 L1258.02708,948.434059 C1258.02708,948.434059 1254.81772,952.088158 1251.84693,949.159447 C1248.87613,946.230736 1252.6199,943.103347 1252.6199,943.103347 L1260.23505,935.595755 C1260.23505,935.595755 1261.08779,934.893951 1260.44896,934.262184 C1259.80724,933.631132 1259.09662,934.473011 1259.09662,934.473011 L1250.35827,943.08548 C1250.35827,943.08548 1247.05972,946.650961 1250.7433,950.280762 C1254.42688,953.912707 1258.04666,950.66168 1258.04666,950.66168 L1270.05673,938.823198 C1270.05673,938.823198 1272.45976,936.211085 1269.59483,933.386 C1266.72991,930.560916 1264.07889,932.929327 1264.07889,932.929327 L1253.74455,943.113352 C1253.74455,943.113352 1251.09788,945.235203 1253.49946,947.600755 C1255.90104,949.969166 1258.01475,947.322035 1258.01475,947.322035 L1265.36016,940.085302 Z" id="attach"></path>
        </g>
    </g>
</svg>