<?xml version="1.0" encoding="UTF-8" standalone="no"?>
<svg width="16px" height="16px" viewBox="0 0 16 16" version="1.1" xmlns="http://www.w3.org/2000/svg" xmlns:xlink="http://www.w3.org/1999/xlink">
    <!-- Generator: Sketch 49.3 (51167) - http://www.bohemiancoding.com/sketch -->
    <title>Combined Shape Copy</title>
    <desc>Created with Sketch.</desc>
    <defs></defs>
    <g id="Page-1" stroke="none" stroke-width="1" fill="none" fill-rule="evenodd">
        <g id="18.-Payment-Info" transform="translate(-933.000000, -308.000000)" fill="#2995E1" fill-rule="nonzero">
            <path d="M941.016842,308 C936.604211,308 933,311.604211 933,316.016842 C933,320.429474 936.604211,324 941.016842,324 C945.429474,324 949,320.429474 949,316.016842 C949,311.604211 945.429474,308 941.016842,308 Z M941.016842,322.551579 C937.412632,322.551579 934.482105,319.621053 934.482105,316.016842 C934.482105,312.412632 937.412632,309.482105 941.016842,309.482105 C944.621053,309.482105 947.551579,312.412632 947.551579,316.016842 C947.551579,319.621053 944.621053,322.551579 941.016842,322.551579 Z M942.094737,318.88 L941.421053,319.183158 L942.296842,314.703158 C942.397895,314.231579 941.892632,313.726316 941.353684,314.029474 L939.703158,314.938947 C939.4,315.107368 939.298947,315.511579 939.467368,315.814737 C939.635789,316.117895 940.04,316.218947 940.343158,316.050526 L940.747368,315.848421 L939.905263,320.126316 C939.837895,320.496842 940.141053,320.901053 940.545263,320.901053 C940.646316,320.901053 940.747368,320.867368 940.814737,320.833684 L942.6,320.058947 C942.936842,319.924211 943.071579,319.553684 942.936842,319.216842 C942.802105,318.88 942.431579,318.745263 942.094737,318.88 Z M941.656842,312.816842 C942.162105,312.816842 942.566316,312.412632 942.566316,311.907368 C942.566316,311.402105 942.162105,310.997895 941.656842,310.997895 C941.151579,310.997895 940.747368,311.402105 940.747368,311.907368 C940.747368,312.412632 941.151579,312.816842 941.656842,312.816842 Z" id="Combined-Shape-Copy"></path>
        </g>
    </g>
</svg>