<?xml version="1.0" encoding="UTF-8" standalone="no"?>
<svg width="18px" height="16px" viewBox="0 0 18 16" version="1.1" xmlns="http://www.w3.org/2000/svg" xmlns:xlink="http://www.w3.org/1999/xlink">
    <!-- Generator: Sketch 49.3 (51167) - http://www.bohemiancoding.com/sketch -->
    <title>faq</title>
    <desc>Created with Sketch.</desc>
    <defs></defs>
    <g id="Page-1" stroke="none" stroke-width="1" fill="none" fill-rule="evenodd">
        <g id="16.1.-Personal-Information" transform="translate(-147.000000, -207.000000)" fill="#122D47" fill-rule="nonzero">
            <path d="M160.771736,210.771893 C160.771736,211.30403 160.374744,211.627657 160.08486,211.865151 C159.975074,211.955107 159.770727,212.119243 159.771273,212.180552 C159.773256,212.421047 159.575107,212.613104 159.328612,212.613104 C159.327372,212.613104 159.326132,212.613104 159.324893,212.613104 C159.080132,212.613104 158.880694,212.42695 158.878711,212.187666 C158.874793,211.716016 159.227504,211.433568 159.510942,211.201348 C159.733339,211.019114 159.879174,210.890882 159.879174,210.773538 C159.879174,210.535996 159.681124,210.342729 159.437702,210.342729 C159.194182,210.342729 158.996083,210.535996 158.996083,210.773538 C158.996083,211.014081 158.796298,211.209042 158.549802,211.209042 C158.303306,211.209042 158.103521,211.014081 158.103521,210.773538 C158.103521,210.055732 158.701983,209.471723 159.437603,209.471723 C160.173273,209.471674 160.771736,210.054039 160.771736,210.771893 Z M159.33724,213.015122 C159.090744,213.015122 158.900826,213.210082 158.900826,213.450625 L158.900826,213.453964 C158.900826,213.694507 159.090793,213.887822 159.33724,213.887822 C159.583686,213.887822 159.783521,213.691168 159.783521,213.450625 C159.783521,213.210082 159.583736,213.015122 159.33724,213.015122 Z M150.341752,216.048788 C150.095256,216.048788 149.895471,216.243749 149.895471,216.484292 C149.895471,216.724835 150.095256,216.919795 150.341752,216.919795 L150.378942,216.919795 C150.625438,216.919795 150.825223,216.724835 150.825223,216.484292 C150.825223,216.243749 150.625438,216.048788 150.378942,216.048788 L150.341752,216.048788 Z M151.892777,216.048788 C151.646281,216.048788 151.446496,216.243749 151.446496,216.484292 C151.446496,216.724835 151.646281,216.919795 151.892777,216.919795 L151.929917,216.919795 C152.176413,216.919795 152.376198,216.724835 152.376198,216.484292 C152.376198,216.243749 152.176413,216.048788 151.929917,216.048788 L151.892777,216.048788 Z M165,209.092883 L165,213.994762 C165,215.155378 164.046347,216.097178 162.857008,216.097178 L157.069388,216.097178 C156.956231,216.097178 156.863058,216.096549 156.785107,216.094952 C156.703438,216.093307 156.611504,216.092677 156.575653,216.096549 C156.538314,216.120743 156.446777,216.202569 156.358562,216.281879 C156.323603,216.313284 156.284033,216.347834 156.241339,216.385868 L154.603884,217.842287 C154.473273,217.958567 154.280033,217.988665 154.118281,217.919081 C153.956529,217.849449 153.842975,217.693152 153.842975,217.520644 L153.842975,212.903488 L149.167934,212.903488 C148.470645,212.903488 147.892562,213.461077 147.892562,214.14143 L147.892562,219.043308 C147.892562,219.72371 148.470694,220.258653 149.167934,220.258653 L155.63276,220.258653 C155.744083,220.258653 155.848215,220.308542 155.93043,220.381803 L157.264463,221.58205 L157.264463,217.442883 C157.264463,217.20234 157.464248,217.007379 157.710744,217.007379 C157.95724,217.007379 158.157025,217.20234 158.157025,217.442883 L158.157025,222.569142 C158.157025,222.74165 158.055868,222.895624 157.894066,222.965257 C157.836198,222.990177 157.778083,223 157.71724,223 C157.60795,223 157.500149,222.956208 157.416298,222.881495 L155.459752,221.129611 L149.167934,221.129611 C147.978545,221.129611 147,220.203924 147,219.04326 L147,214.14143 C147,212.980814 147.978545,212.032481 149.167934,212.032481 L153.842975,212.032481 L153.842975,209.092883 C153.842975,207.932219 154.829008,207 156.018397,207 L162.857058,207 C164.046347,207 165,207.932219 165,209.092883 Z M164.107438,209.092883 C164.107438,208.412482 163.554198,207.871006 162.857008,207.871006 L156.018397,207.871006 C155.321157,207.871006 154.735537,208.412482 154.735537,209.092883 L154.735537,212.472049 L154.735537,216.533552 L155.63281,215.742243 C155.674364,215.705225 155.720926,215.671352 155.754893,215.64077 C156.164628,215.272335 156.269455,215.213445 156.803901,215.224187 C156.876793,215.225687 156.96362,215.22622 157.069388,215.22622 L162.857008,215.22622 C163.554198,215.22622 164.107438,214.675163 164.107438,213.99481 L164.107438,209.092883 Z" id="faq"></path>
        </g>
    </g>
</svg>