<?xml version="1.0" encoding="UTF-8" standalone="no"?>
<svg width="16px" height="16px" viewBox="0 0 16 16" version="1.1" xmlns="http://www.w3.org/2000/svg" xmlns:xlink="http://www.w3.org/1999/xlink">
    <!-- Generator: Sketch 49.3 (51167) - http://www.bohemiancoding.com/sketch -->
    <title>log out</title>
    <desc>Created with Sketch.</desc>
    <defs></defs>
    <g id="Page-1" stroke="none" stroke-width="1" fill="none" fill-rule="evenodd">
        <g id="16.1.-Personal-Information" transform="translate(-148.000000, -405.000000)" fill="#122D47" fill-rule="nonzero">
            <path d="M162.285672,405 C163.232488,405 164.000033,405.767511 164,406.714285 L164,419.285715 C164,420.232489 163.232455,421 162.285638,421 L154.856727,421 C153.90991,421 153.142365,420.232489 153.142365,419.285715 L153.142365,415.857146 C153.142365,415.541544 153.398213,415.285707 153.71383,415.285707 C154.029447,415.285707 154.285295,415.541544 154.285295,415.857146 L154.285295,419.285715 C154.285295,419.601318 154.541144,419.857155 154.85676,419.857155 L162.285705,419.857155 C162.601322,419.857155 162.85717,419.601318 162.85717,419.285715 L162.85717,406.714285 C162.85717,406.398682 162.601322,406.142845 162.285705,406.142845 L154.856794,406.142845 C154.541177,406.142845 154.285329,406.398682 154.285329,406.714285 L154.285329,410.142854 C154.285329,410.458456 154.02948,410.714293 153.713864,410.714293 C153.398247,410.714293 153.142399,410.458456 153.142399,410.142854 L153.142399,406.714285 C153.142399,405.767511 153.909944,405 154.85676,405 L162.285672,405 Z M159.42838,412.428577 C159.743997,412.428577 159.999879,412.684381 159.999879,412.999983 C159.999879,413.315586 159.74403,413.571423 159.428414,413.571423 L149.950271,413.571423 L151.83262,415.45372 C151.837408,415.458341 151.842095,415.463028 151.846683,415.467783 C152.065933,415.694792 152.059639,416.056532 151.83262,416.275773 C151.605601,416.495014 151.243843,416.48872 151.024593,416.261711 L148.167334,413.404581 C148.114028,413.351345 148.071873,413.28803 148.043345,413.218287 C147.985552,413.078499 147.985552,412.921501 148.043345,412.781713 C148.071739,412.712204 148.113694,412.649091 148.166765,412.595988 L151.024057,409.738858 C151.245484,409.525008 151.59656,409.525008 151.818021,409.738858 C152.04504,409.958099 152.051335,410.31984 151.832084,410.546849 L149.950271,412.428577 L159.42838,412.428577 Z" id="log-out" transform="translate(156.000000, 413.000000) scale(-1, 1) translate(-156.000000, -413.000000) "></path>
        </g>
    </g>
</svg>