<?xml version="1.0" encoding="UTF-8" standalone="no"?>
<svg width="158px" height="128px" viewBox="0 0 158 128" version="1.1" xmlns="http://www.w3.org/2000/svg" xmlns:xlink="http://www.w3.org/1999/xlink">
    <!-- Generator: Sketch 49.3 (51167) - http://www.bohemiancoding.com/sketch -->
    <title>no photo</title>
    <desc>Created with Sketch.</desc>
    <defs></defs>
    <g id="Page-1" stroke="none" stroke-width="1" fill="none" fill-rule="evenodd">
        <g id="08.1.1.-Preview" transform="translate(-641.000000, -319.000000)" fill="#9FAFBE" fill-rule="nonzero">
            <g id="Group-2-Copy-6" transform="translate(0.000000, 96.000000)">
                <path d="M641,223 L641,351 L799,351 L799,223 L641,223 Z M789.125,341.153846 L650.875,341.153846 L650.875,232.846154 L789.125,232.846154 L789.125,341.153846 Z M749.625,257.461538 C749.625,265.618462 756.25668,272.230769 764.4375,272.230769 C772.61832,272.230769 779.25,265.618462 779.25,257.461538 C779.25,249.304615 772.61832,242.692308 764.4375,242.692308 C756.25668,242.692308 749.625,249.304615 749.625,257.461538 Z M779.25,331.307692 L660.75,331.307692 L690.375,252.538462 L729.875,301.769231 L749.625,287 L779.25,331.307692 Z" id="no-photo"></path>
            </g>
        </g>
    </g>
</svg>