<?xml version="1.0" encoding="UTF-8" standalone="no"?>
<svg width="141px" height="151px" viewBox="0 0 141 151" version="1.1" xmlns="http://www.w3.org/2000/svg" xmlns:xlink="http://www.w3.org/1999/xlink">
    <!-- Generator: Sketch 49.3 (51167) - http://www.bohemiancoding.com/sketch -->
    <title>no ava</title>
    <desc>Created with Sketch.</desc>
    <defs></defs>
    <g id="Page-1" stroke="none" stroke-width="1" fill="none" fill-rule="evenodd">
        <g id="08.1.1.-Preview" transform="translate(-1040.000000, -596.000000)" fill="#9FAFBE" fill-rule="nonzero">
            <g id="Group-4" transform="translate(928.000000, 507.000000)">
                <g id="Group-2" transform="translate(82.000000, 40.000000)">
                    <path d="M147.687831,152.813698 L138.249922,152.813698 C127.826117,152.813698 119.374416,144.361909 119.374416,133.937683 L119.374416,127.874105 C123.550163,122.910959 126.545198,117.04033 128.406825,110.837019 C128.600083,109.79136 129.60652,109.274755 130.277788,108.555864 C133.891188,104.943049 134.601668,98.8461721 131.891385,94.5051307 C131.522296,93.8463032 130.857563,93.2749251 130.895219,92.4586263 C130.895219,86.9241019 130.922916,81.3808637 130.888061,75.8506962 C130.739928,69.173727 128.83162,62.2281851 124.150477,57.2840224 C120.371206,53.2893556 115.181865,50.9107923 109.828209,49.8928307 C103.062927,48.6022508 95.9851961,48.6676045 89.2846452,50.3720911 C83.4778746,51.8375699 78.0224541,55.2384518 74.6493051,60.2797114 C71.6623613,64.6624547 70.3537451,69.9841128 70.1327897,75.2289025 C70.0500092,80.8599014 70.1138062,86.5049047 70.0966899,92.1495967 C70.2252175,93.2795933 69.2667066,94.0442315 68.8338208,94.979723 C66.2810076,99.6108103 67.4047682,105.920243 71.5067589,109.288448 C72.5474278,110.006716 72.742242,111.315968 73.1191111,112.44472 C74.9079163,118.020635 77.8749431,123.177353 81.6258947,127.670575 L81.6258947,133.937683 C81.6258947,144.361909 73.1745055,152.813698 62.7510114,152.813698 L53.3127918,152.813698 C53.3127918,152.813698 36.2077302,157.53099 25,181.125853 L25,190.56386 C25,195.779396 29.2211821,200 34.4379085,200 L166.563648,200 C171.779129,200 176,195.779396 176,190.56386 L176,181.125853 C164.792892,157.532857 147.687831,152.813698 147.687831,152.813698 Z" id="no-ava"></path>
                </g>
            </g>
        </g>
    </g>
</svg>