<?xml version="1.0" encoding="UTF-8" standalone="no"?>
<svg width="18px" height="18px" viewBox="0 0 18 18" version="1.1" xmlns="http://www.w3.org/2000/svg" xmlns:xlink="http://www.w3.org/1999/xlink">
    <!-- Generator: Sketch 49.3 (51167) - http://www.bohemiancoding.com/sketch -->
    <title>payment</title>
    <desc>Created with Sketch.</desc>
    <defs></defs>
    <g id="Page-1" stroke="none" stroke-width="1" fill="none" fill-rule="evenodd">
        <g id="16.1.-Personal-Information" transform="translate(-147.000000, -272.000000)" fill="#122D47" fill-rule="nonzero">
            <path d="M164.522196,278.177055 L158.822452,272.477127 C158.514765,272.169461 158.104456,272 157.667042,272 C157.229663,272 156.819319,272.16939 156.511631,272.477057 L147.477106,281.512021 C147.169453,281.819722 147,282.230014 147,282.667448 C147,283.104882 147.169453,283.515244 147.477106,283.822875 L148.17995,284.52575 C148.18002,284.525785 148.180055,284.525856 148.180125,284.525926 C148.180196,284.525996 148.180266,284.526067 148.180336,284.526137 L152.903931,289.249943 L152.249884,289.249943 C152.042814,289.249943 151.874907,289.417822 151.874907,289.624936 C151.874907,289.832016 152.042814,289.99993 152.249884,289.99993 L154.330748,289.99993 C154.33124,289.99993 154.331697,289.999965 154.332189,289.999965 C154.332681,289.999965 154.333139,289.99993 154.333631,289.99993 L159.749558,290 C159.956628,290 160.124534,289.832086 160.124534,289.625007 C160.124534,289.417892 159.956628,289.250013 159.749558,289.250013 L155.760588,289.249943 L164.522231,280.487909 C165.159262,279.850778 165.159262,278.814115 164.522196,278.177055 Z M163.991899,279.957588 L154.957303,288.992588 C154.791611,289.158251 154.570127,289.249591 154.33356,289.249943 L154.330713,289.249943 C154.094217,289.249556 153.872802,289.158251 153.707181,288.992588 L148.975606,284.260766 L157.651995,275.583919 C157.798421,275.437486 157.798421,275.20003 157.651995,275.053598 C157.505534,274.907166 157.268159,274.907166 157.121663,275.053633 L148.445274,283.73048 L148.007367,283.292554 C147.841395,283.126574 147.749988,282.904588 147.749988,282.667483 C147.749988,282.430379 147.841395,282.208357 148.007403,282.042342 L157.041928,273.007412 C157.207936,272.841432 157.429948,272.750022 157.667042,272.750022 C157.904135,272.750022 158.126147,272.841432 158.292155,273.007448 L160.320777,275.036125 L151.644282,283.713077 C151.497857,283.859474 151.497857,284.09693 151.644282,284.243433 C151.717513,284.316631 151.813489,284.353231 151.909431,284.353231 C152.005372,284.353231 152.101349,284.316596 152.174579,284.243398 L160.851074,275.566481 L163.991899,278.70734 C164.336535,279.052028 164.3365,279.612901 163.991899,279.957588 Z M156.2391,282.830475 C156.092674,282.684042 155.855299,282.684078 155.708768,282.830475 L152.757962,285.781377 C152.611537,285.927809 152.611537,286.16523 152.757962,286.311733 C152.831193,286.384967 152.927169,286.421566 153.023111,286.421566 C153.119052,286.421566 153.215029,286.384931 153.288259,286.311733 L156.239065,283.360831 C156.385526,283.214328 156.385526,282.976907 156.2391,282.830475 Z M155.028811,285.631745 L153.818556,286.842053 C153.672131,286.988486 153.672131,287.225942 153.818556,287.372409 C153.891787,287.445608 153.987763,287.482242 154.083705,287.482242 C154.179717,287.482242 154.275623,287.445608 154.348853,287.372409 L155.559108,286.162101 C155.705533,286.015669 155.705533,285.778213 155.559108,285.631745 C155.412682,285.485278 155.175342,285.485278 155.028811,285.631745 Z M156.142526,284.518086 L155.983444,284.67714 C155.836983,284.823572 155.836983,285.060993 155.983408,285.207496 C156.056604,285.280729 156.152616,285.317364 156.248557,285.317364 C156.344498,285.317364 156.440475,285.280729 156.51367,285.207496 L156.672752,285.048442 C156.819213,284.902009 156.819213,284.664588 156.672788,284.518121 C156.526432,284.371689 156.288951,284.371653 156.142526,284.518086 Z M161.311164,277.75822 C161.240851,277.687904 161.145472,277.648387 161.046015,277.648387 C160.946558,277.648387 160.851214,277.687904 160.780867,277.75822 L159.18987,279.349252 C159.119558,279.419603 159.080042,279.514951 159.080042,279.614412 C159.080042,279.713874 159.119558,279.809257 159.18987,279.879573 L160.250534,280.940179 C160.323765,281.013413 160.419742,281.050012 160.515683,281.050012 C160.611695,281.050012 160.707601,281.013378 160.780831,280.940179 L162.371758,279.349217 C162.518183,279.202785 162.518183,278.965329 162.371758,278.818896 L161.311164,277.75822 Z M160.515648,280.144733 L159.985316,279.614412 L161.04598,278.553736 L161.576277,279.084092 L160.515648,280.144733 Z M158.261921,274.818779 C158.357932,274.818779 158.453909,274.782145 158.527104,274.708876 L158.686186,274.549716 C158.832577,274.403249 158.832542,274.165793 158.686081,274.019395 C158.539655,273.872998 158.302175,273.873033 158.155784,274.019501 L157.996702,274.17866 C157.850311,274.325128 157.850346,274.562584 157.996807,274.708981 C158.070038,274.782215 158.165944,274.818779 158.261921,274.818779 Z M150.769278,284.58812 L150.610196,284.747209 C150.46377,284.893607 150.46377,285.131063 150.610196,285.277565 C150.683427,285.350764 150.779403,285.387363 150.875345,285.387363 C150.971286,285.387363 151.067263,285.350764 151.140493,285.277565 L151.299575,285.118476 C151.446001,284.972009 151.446001,284.734553 151.299575,284.58812 C151.153114,284.441653 150.915739,284.441653 150.769278,284.58812 Z" id="payment"></path>
        </g>
    </g>
</svg>