<?xml version="1.0" encoding="UTF-8" standalone="no"?>
<svg width="8px" height="8px" viewBox="0 0 8 8" version="1.1" xmlns="http://www.w3.org/2000/svg" xmlns:xlink="http://www.w3.org/1999/xlink">
    <!-- Generator: Sketch 49.3 (51167) - http://www.bohemiancoding.com/sketch -->
    <title>remove image</title>
    <desc>Created with Sketch.</desc>
    <defs></defs>
    <g id="Page-1" stroke="none" stroke-width="1" fill="none" fill-rule="evenodd">
        <g id="08.1.-Ad-A-House-Step-3" transform="translate(-990.000000, -305.000000)" fill="#668BAB" fill-rule="nonzero">
            <g id="Group-8-Copy-2" transform="translate(982.000000, 297.000000)">
                <path d="M12.9507882,12.0000188 L15.8030822,9.1477214 C16.0656393,8.885164 16.0656393,8.45947545 15.8030822,8.19695561 C15.5405251,7.93439821 15.1148746,7.93439821 14.8523175,8.19695561 L11.9999859,11.0492906 L9.14765432,8.19691805 C8.88509723,7.93436065 8.45944674,7.93436065 8.19688965,8.19691805 C7.93437012,8.45947545 7.93437012,8.885164 8.19688965,9.14768384 L11.0492212,11.9999812 L8.19688965,14.8523162 C7.93437012,15.1148736 7.93437012,15.5405621 8.19688965,15.803082 C8.45944674,16.0656393 8.88509723,16.0656393 9.14765432,15.803082 L11.9999859,12.950747 L14.8523175,15.803082 C15.114837,16.0656393 15.5405251,16.0656393 15.8030822,15.803082 C16.0656393,15.5405246 16.0656393,15.1148736 15.8030822,14.8523162 L12.9507882,12.0000188 Z" id="remove-image"></path>
            </g>
        </g>
    </g>
</svg>