<?xml version="1.0" encoding="UTF-8" standalone="no"?>
<svg width="16px" height="16px" viewBox="0 0 16 16" version="1.1" xmlns="http://www.w3.org/2000/svg" xmlns:xlink="http://www.w3.org/1999/xlink">
    <!-- Generator: Sketch 49.3 (51167) - http://www.bohemiancoding.com/sketch -->
    <title>stats</title>
    <desc>Created with Sketch.</desc>
    <defs></defs>
    <g id="Page-1" stroke="none" stroke-width="1" fill="none" fill-rule="evenodd">
        <g id="16.1.-Personal-Information" transform="translate(-148.000000, -339.000000)" fill="#122D47" fill-rule="nonzero">
            <path d="M161.832843,347.404787 L155.596808,347.404787 L155.596808,341.170061 C155.596808,340.918119 155.395212,340.716565 155.143217,340.716565 C151.205376,340.716565 148,343.921268 148,347.858283 C148,351.795297 151.205376,355 155.143217,355 C159.081058,355 162.286434,351.795297 162.286434,347.858283 C162.286434,347.6097 162.081478,347.404787 161.832843,347.404787 Z M155.143217,354.093009 C151.706006,354.093009 148.907182,351.294772 148.907182,347.858283 C148.907182,344.572958 151.460731,341.872139 154.689626,341.640353 L154.689626,347.858283 C154.689626,348.110225 154.891222,348.311778 155.143217,348.311778 L161.362453,348.311778 C161.130617,351.539996 158.429231,354.093009 155.143217,354.093009 Z M164,346.118203 C164,346.12828 164,346.134999 164,346.141717 C164,346.393659 163.798404,346.595213 163.546409,346.595213 L156.856783,346.595213 C156.604788,346.595213 156.403192,346.393659 156.403192,346.141717 L156.403192,339.453496 C156.403192,339.201554 156.604788,339 156.856783,339 C158.906342,339 160.855103,339.880118 162.212516,341.415284 C163.358253,342.715305 163.99328,344.384841 164,346.118203 Z M157.310374,345.691581 L163.076018,345.691581 C162.97522,344.334453 162.437631,343.04451 161.530449,342.019945 C160.448551,340.793827 158.929861,340.04472 157.310374,339.927147 L157.310374,345.691581 Z" id="stats"></path>
        </g>
    </g>
</svg>