<?xml version="1.0" encoding="UTF-8"?>
<svg width="26px" height="16px" viewBox="0 0 26 16" version="1.1" xmlns="http://www.w3.org/2000/svg" xmlns:xlink="http://www.w3.org/1999/xlink">
    <!-- Generator: Sketch 49.3 (51167) - http://www.bohemiancoding.com/sketch -->
    <title>show password</title>
    <desc>Created with Sketch.</desc>
    <defs></defs>
    <g id="Page-1" stroke="none" stroke-width="1" fill="none" fill-rule="evenodd">
        <g id="04.-Login" transform="translate(-875.000000, -397.000000)" fill="#FFFFFF" fill-rule="nonzero">
            <path d="M900.78947,404.388758 C896.862413,399.488051 892.622253,397 888.175126,397 C886.413257,397 884.63016,397.398519 882.868291,398.179401 C881.483208,398.798721 880.108738,399.654998 878.787336,400.726691 C876.553159,402.541568 875.237064,404.35106 875.183995,404.426456 C874.929267,404.781892 874.939881,405.266577 875.21053,405.611242 C879.13228,410.517334 883.377747,413 887.824874,413 C889.586743,413 891.36984,412.601481 893.131709,411.820599 C894.516792,411.201279 895.891262,410.345002 897.212664,409.273309 C899.446841,407.458432 900.762936,405.64894 900.816005,405.573544 C901.070733,405.218108 901.060119,404.733423 900.78947,404.388758 Z M895.976172,407.792326 C894.129394,409.284079 891.221248,411.061259 887.824874,411.061259 C884.157852,411.061259 880.581046,409.020195 877.184672,404.991922 C877.720662,404.35106 878.702426,403.279367 880.018521,402.21306 C881.8653,400.721306 884.773445,398.944127 888.169819,398.944127 C891.836841,398.944127 895.413647,400.98519 898.810021,405.013463 C898.274031,405.654325 897.292267,406.731404 895.976172,407.792326 Z M891.518431,404.033322 C890.993055,404.033322 890.563201,404.469539 890.563201,405.002693 C890.563201,406.440592 889.411618,407.609222 887.994693,407.609222 C886.577768,407.609222 885.426185,406.440592 885.426185,405.002693 C885.426185,403.564793 886.577768,402.396163 887.994693,402.396163 C888.52007,402.396163 888.949923,401.959946 888.949923,401.426792 C888.949923,400.893639 888.52007,400.457422 887.994693,400.457422 C885.521708,400.457422 883.515725,402.498485 883.515725,405.002693 C883.515725,407.5069 885.521708,409.547964 887.994693,409.547964 C890.467678,409.547964 892.473661,407.5069 892.473661,405.002693 C892.473661,404.469539 892.043808,404.033322 891.518431,404.033322 Z" id="show-password"></path>
        </g>
    </g>
</svg>