<?xml version="1.0" encoding="UTF-8" standalone="no"?>
<svg width="20px" height="20px" viewBox="0 0 15 16" version="1.1" xmlns="http://www.w3.org/2000/svg" xmlns:xlink="http://www.w3.org/1999/xlink">
    <!-- Generator: Sketch 49.3 (51167) - http://www.bohemiancoding.com/sketch -->
    <title>search</title>
    <desc>Created with Sketch.</desc>
    <defs></defs>
    <g id="Page-1" stroke="none" stroke-width="1" fill="none" fill-rule="evenodd">
        <g id="19.-Stats" transform="translate(-198.000000, -40.000000)" fill="#FFFFFF" fill-rule="nonzero">
            <path d="M212.771935,54.5734649 L209.074178,50.612927 C210.024936,49.4490047 210.545862,47.9845522 210.545862,46.4599937 C210.545862,42.8980093 207.731771,40 204.272931,40 C200.814091,40 198,42.8980093 198,46.4599937 C198,50.021978 200.814091,52.9199874 204.272931,52.9199874 C205.571428,52.9199874 206.808832,52.5166591 207.866775,51.7510094 L211.592624,55.7416003 C211.748356,55.9081557 211.957817,56 212.182279,56 C212.394741,56 212.596293,55.9165818 212.749298,55.7649124 C213.074399,55.4427553 213.084763,54.9085419 212.771935,54.5734649 Z M204.272931,41.6852157 C206.82956,41.6852157 208.909446,43.827125 208.909446,46.4599937 C208.909446,49.0928624 206.82956,51.2347716 204.272931,51.2347716 C201.716303,51.2347716 199.636417,49.0928624 199.636417,46.4599937 C199.636417,43.827125 201.716303,41.6852157 204.272931,41.6852157 Z" id="search"></path>
        </g>
    </g>
</svg>