<?xml version="1.0" encoding="UTF-8" standalone="no"?>
<svg width="26px" height="22px" viewBox="0 0 26 22" version="1.1" xmlns="http://www.w3.org/2000/svg" xmlns:xlink="http://www.w3.org/1999/xlink">
    <!-- Generator: Sketch 49.3 (51167) - http://www.bohemiancoding.com/sketch -->
    <title>take photo</title>
    <desc>Created with Sketch.</desc>
    <defs>
        <linearGradient x1="3.14988057%" y1="-10.8506944%" x2="102.335042%" y2="109.103733%" id="linearGradient-1">
            <stop stop-color="#2694E1" offset="0%"></stop>
            <stop stop-color="#58A7D7" offset="100%"></stop>
        </linearGradient>
        <path d="M37.6161575,20.9816922 C37.8560591,21.1068778 38,21.3572489 38,21.6293914 L38,30.283523 C38,33.7560614 35.2331351,36.5754577 31.837195,36.5754577 C31.437359,36.5754577 31.1174903,36.2488867 31.1174903,35.8406729 C31.1174903,35.4324592 31.437359,35.1058882 31.837195,35.1058882 C34.4441255,35.1058882 36.5605905,32.9396338 36.5605905,30.283523 L36.5605905,22.0920336 C35.6916137,21.6892627 33.404552,20.736764 30.1365594,20.1598219 C29.8540086,20.1108362 29.6247693,19.8931222 29.5607956,19.6046512 L29.2942383,18.4344384 C29.027681,17.2751113 28.0307566,16.4695695 26.8685667,16.4695695 L23.1314333,16.4695695 C21.9639122,16.4695695 20.972319,17.2805542 20.7057617,18.4344384 L20.4392044,19.6046512 C20.3752307,19.8876794 20.1459914,20.1108362 19.8634406,20.1598219 C16.5847857,20.736764 14.3030552,21.6892627 13.4394095,22.0920336 L13.4394095,30.283523 C13.4394095,32.9450767 15.5612057,35.1058882 18.162805,35.1058882 C18.562641,35.1058882 18.8825097,35.4324592 18.8825097,35.8406729 C18.8825097,36.2488867 18.562641,36.5754577 18.162805,36.5754577 C14.7615337,36.5754577 12,33.7506185 12,30.283523 L12,21.6293914 C12,21.3572489 12.1492721,21.1068778 12.3838425,20.9816922 C12.4904655,20.9218209 14.9854419,19.5937655 19.1437359,18.7991094 L19.3036703,18.1024245 C19.7248308,16.2736269 21.297519,15 23.1314333,15 L26.8685667,15 C28.7078122,15 30.2805003,16.2790698 30.6963297,18.1024245 L30.8562641,18.7991094 C35.0145581,19.5992083 37.5095345,20.9218209 37.6161575,20.9816922 Z M14.3563666,19.4794656 C14.0578224,19.4794656 13.7752717,19.283523 13.6686488,18.9732806 C13.5460324,18.592281 13.748616,18.1731816 14.1271273,18.047996 C14.9267993,17.7812964 15.7637892,17.541811 16.6114415,17.3349827 C16.995284,17.2424542 17.3844577,17.4819396 17.4750871,17.8792677 C17.5657166,18.2711529 17.3311462,18.668481 16.9419725,18.7610094 C16.1316383,18.956952 15.3372975,19.1855517 14.5802748,19.4413657 C14.5056387,19.4685799 14.4310027,19.4794656 14.3563666,19.4794656 Z M25.0026656,20.0781791 C29.5714579,20.0781791 33.2872668,23.8772885 33.2872668,28.541811 C33.2872668,33.2063335 29.5714579,37 25.0026656,37 C20.4338733,37 16.7180644,33.2008906 16.7180644,28.5363681 C16.7180644,23.8718456 20.4338733,20.0781791 25.0026656,20.0781791 Z M25.0026656,35.5304305 C28.7771171,35.5304305 31.8478573,32.389906 31.8478573,28.5363681 C31.8478573,24.6828303 28.7771171,21.5477486 25.0026656,21.5477486 C21.2282141,21.5477486 18.1574739,24.6882731 18.1574739,28.541811 C18.1574739,32.3953488 21.2282141,35.5304305 25.0026656,35.5304305 Z" id="path-2"></path>
    </defs>
    <g id="Page-1" stroke="none" stroke-width="1" fill="none" fill-rule="evenodd">
        <g id="08.2.-Ad-A-House-Step-4" transform="translate(-707.000000, -585.000000)" fill-rule="nonzero">
            <g id="Group-8-Copy-2" transform="translate(695.000000, 570.000000)">
                <g id="take-photo">
                    <use fill="url(#linearGradient-1)" fill-rule="evenodd" xlink:href="#path-2"></use>
                    <use fill="#FFFFFF" fill-rule="evenodd" xlink:href="#path-2"></use>
                </g>
            </g>
        </g>
    </g>
</svg>