<?xml version="1.0" encoding="UTF-8" standalone="no"?>
<svg width="16px" height="18px" viewBox="0 0 16 18" version="1.1" xmlns="http://www.w3.org/2000/svg" xmlns:xlink="http://www.w3.org/1999/xlink">
    <!-- Generator: Sketch 49.3 (51167) - http://www.bohemiancoding.com/sketch -->
    <title>personal ac</title>
    <desc>Created with Sketch.</desc>
    <defs></defs>
    <g id="Page-1" stroke="none" stroke-width="1" fill="none" fill-rule="evenodd">
        <g id="16.1.-Personal-Information" transform="translate(-147.000000, -140.000000)" fill="#122D47" fill-rule="nonzero">
            <path d="M154.931818,149.698902 C154.951294,149.698902 154.97077,149.698902 154.994142,149.698902 C155.001932,149.698902 155.009723,149.698902 155.017513,149.698902 C155.029199,149.698902 155.04478,149.698902 155.056466,149.698902 C156.197778,149.680265 157.120956,149.296335 157.802627,148.562021 C159.302304,146.944295 159.053007,144.17105 159.02574,143.906399 C158.928358,141.919652 157.946752,140.969145 157.136537,140.525575 C156.532771,140.193829 155.827728,140.01491 155.040885,140 L155.013618,140 C155.009723,140 155.001932,140 154.998037,140 L154.974665,140 C154.542291,140 153.693124,140.067095 152.879013,140.510665 C152.061008,140.954235 151.06382,141.904742 150.966439,143.906399 C150.939172,144.17105 150.689875,146.944295 152.189552,148.562021 C152.867328,149.296335 153.790505,149.680265 154.931818,149.698902 Z M152.006474,143.999586 C152.006474,143.988403 152.01037,143.977221 152.01037,143.969766 C152.138913,141.297163 154.121603,141.010147 154.97077,141.010147 L154.986351,141.010147 C154.994142,141.010147 155.005828,141.010147 155.017513,141.010147 C156.069235,141.032512 157.857161,141.442535 157.977914,143.969766 C157.977914,143.980948 157.977914,143.992131 157.981809,143.999586 C157.985704,144.025678 158.258373,146.560364 157.019679,147.894802 C156.528876,148.424104 155.874471,148.685028 155.013618,148.692483 C155.005828,148.692483 155.001932,148.692483 154.994142,148.692483 C154.986351,148.692483 154.982456,148.692483 154.974665,148.692483 C154.117707,148.685028 153.459408,148.424104 152.9725,147.894802 C151.737701,146.567819 152.002579,144.021951 152.006474,143.999586 Z M162.998909,154.298613 C163.002804,154.492441 163.0067,155.487679 162.811936,155.983433 C162.772984,156.080348 162.698974,156.162352 162.609383,156.218265 C162.492525,156.289087 159.69183,158 155.005828,158 C150.319825,158 147.51913,156.292814 147.402272,156.218265 C147.308786,156.162352 147.238671,156.080348 147.199719,155.983433 C146.99327,155.483951 146.997165,154.488714 147.00106,154.294885 C147.00106,154.291158 147.00106,154.28743 147.00106,154.283703 C147.004955,154.253883 147.004955,154.224063 147.004955,154.190516 C147.028327,153.456202 147.078965,151.730379 148.76951,151.174984 C148.781196,151.171257 148.792882,151.16753 148.808463,151.163802 C150.573017,150.735142 152.025951,149.765997 152.041532,149.754815 C152.279143,149.594533 152.606345,149.650445 152.773841,149.877821 C152.941338,150.105198 152.882909,150.418306 152.645298,150.578588 C152.579078,150.61959 151.028763,151.655829 149.088922,152.132947 C148.181325,152.442328 148.080048,153.37047 148.052781,154.220335 C148.052781,154.253883 148.048886,154.283703 148.048886,154.313522 C148.041096,154.648996 148.068362,155.167115 148.130687,155.465314 C148.765615,155.808242 151.254688,156.997308 155.001932,156.997308 C158.764757,156.997308 161.23825,155.811969 161.869283,155.469041 C161.931607,155.170843 161.954978,154.652723 161.951083,154.31725 C161.947188,154.28743 161.947188,154.25761 161.947188,154.224063 C161.919921,153.374198 161.818644,152.446055 160.911048,152.136674 C158.971206,151.659557 157.420891,150.627045 157.354672,150.582315 C157.117061,150.422034 157.058632,150.108925 157.226128,149.881549 C157.393624,149.654173 157.720826,149.598261 157.958438,149.758542 C157.974019,149.769725 159.434743,150.738869 161.191507,151.16753 C161.203192,151.171257 161.218773,151.174984 161.230459,151.178712 C162.921004,151.730379 162.971642,153.456202 162.995014,154.194243 C162.995014,154.22779 162.998909,154.25761 162.998909,154.28743 C162.998909,154.291158 162.998909,154.294885 162.998909,154.298613 Z" id="personal-ac"></path>
        </g>
    </g>
</svg>