<?xml version="1.0" encoding="UTF-8" standalone="no"?>
<svg width="16px" height="16px" viewBox="0 0 16 16" version="1.1" xmlns="http://www.w3.org/2000/svg" xmlns:xlink="http://www.w3.org/1999/xlink">
    <!-- Generator: Sketch 49.3 (51167) - http://www.bohemiancoding.com/sketch -->
    <title>view anser</title>
    <desc>Created with Sketch.</desc>
    <defs></defs>
    <g id="Page-1" stroke="none" stroke-width="1" fill="none" fill-rule="evenodd">
        <g id="17.-FAQ" transform="translate(-888.000000, -867.000000)" fill="#2995E1" fill-rule="nonzero">
            <path d="M903.914153,869.510082 C904.003301,869.661321 904.024326,869.842899 903.971083,870.01125 C903.956236,870.05844 902.445738,874.507877 900.957528,878.478875 C899.927412,881.226511 899.105287,882.941538 896.765871,882.997154 C895.898556,883.036605 895.100561,882.652843 895.099332,882.652189 L889.987474,880.308989 C889.987474,880.308989 887.570975,879.545317 888.067142,876.370191 L895.049227,879.217661 C895.049227,879.217661 895.00999,882.031527 897.19618,881.722126 C897.19618,881.724021 897.197344,881.725262 897.198606,881.726535 C898.268314,881.544011 898.831115,880.65023 899.809153,878.040182 C900.930971,875.048723 902.101245,871.835909 902.593046,870.296614 L894.718319,868.26781 L891.444502,876.692785 L890.29121,876.268461 L893.745781,867.407897 C893.849161,867.119756 894.143841,866.953169 894.442531,867.011626 L903.505581,869.217566 C903.676372,869.252249 903.824391,869.358517 903.914153,869.510082 Z M899.783016,873.083309 L897.122947,872.254746 C896.79495,872.164415 896.602972,871.82314 896.692152,871.492839 C896.7813,871.162831 897.123076,870.968778 897.446188,871.059077 L900.106161,871.887966 C900.432895,871.977971 900.626653,872.319213 900.536923,872.649547 C900.461425,872.924559 900.215072,873.10581 899.945818,873.10581 C899.891378,873.10581 899.836259,873.098005 899.783016,873.083309 Z M895.626843,873.975162 C895.73472,873.651327 896.081024,873.476607 896.404266,873.584607 L899.049294,874.53864 C899.371921,874.647162 899.544685,874.998038 899.437779,875.322494 C899.351607,875.582744 899.109847,875.747111 898.851753,875.74574 C898.788062,875.745381 898.724921,875.735681 898.66068,875.714094 L896.014649,874.75944 C895.693316,874.650853 895.520228,874.300499 895.626843,873.975162 Z M895.394044,876.171272 L898.046027,877.121354 C898.367942,877.227622 898.543714,877.578237 898.437908,877.903869 C898.353062,878.163923 898.112855,878.329498 897.855342,878.329498 C897.790843,878.329498 897.727217,878.320125 897.663332,878.298277 L895.011769,877.347575 C894.689854,877.241339 894.513435,876.890071 894.619274,876.566301 C894.72453,876.239984 895.072128,876.062521 895.394044,876.171272 Z M895.295871,870.336359 C895.671644,870.336359 895.976544,870.635733 895.976544,871.004506 C895.976544,871.373572 895.671644,871.67262 895.295871,871.67262 C894.919807,871.67262 894.614907,871.373539 894.614907,871.004506 C894.614939,870.635733 894.919807,870.336359 895.295871,870.336359 Z M894.33294,872.820152 C894.709036,872.820152 895.013613,873.119232 895.013613,873.487972 C895.013613,873.856418 894.709036,874.155466 894.33294,874.155466 C893.956876,874.155466 893.651975,873.856418 893.651975,873.487972 C893.651975,873.119265 893.956876,872.820152 894.33294,872.820152 Z M893.30593,875.382715 C893.682026,875.382715 893.986894,875.682122 893.986894,876.051515 C893.986894,876.420222 893.682026,876.718976 893.30593,876.718976 C892.929866,876.718976 892.624965,876.420288 892.624965,876.051515 C892.624965,875.682122 892.929866,875.382715 893.30593,875.382715 Z" id="view-anser"></path>
        </g>
    </g>
</svg>