<?xml version="1.0" encoding="UTF-8" standalone="no"?>
<svg width="12px" height="16px" viewBox="0 0 12 16" version="1.1" xmlns="http://www.w3.org/2000/svg" xmlns:xlink="http://www.w3.org/1999/xlink">
    <!-- Generator: Sketch 49.3 (51167) - http://www.bohemiancoding.com/sketch -->
    <title>Shape</title>
    <desc>Created with Sketch.</desc>
    <defs></defs>
    <g id="Page-1" stroke="none" stroke-width="1" fill="none" fill-rule="evenodd">
        <g id="19.-Stats" transform="translate(-831.000000, -363.000000)" fill="#2995E1" fill-rule="nonzero">
            <g id="Group-4" transform="translate(831.000000, 358.000000)">
                <path d="M0,10.9239946 C0,7.65745599 2.55458192,5 5.69481646,5 C8.29436403,5 10.4871556,6.82298612 11.1675692,9.30331996 C11.0431642,9.44340307 10.9560974,9.62104495 10.9317161,9.82217838 L10.8694969,10.3390965 L10.7639775,10.9245836 L10.1820221,10.92396 C10.1820221,8.34993709 8.16875998,6.25589725 5.69481646,6.25589725 C3.22020679,6.25589725 1.20704462,8.34997174 1.20704462,10.92396 C1.20704462,12.6699575 2.13500243,14.1925428 3.503124,14.9932999 L2.62556103,15.9060749 C1.04896537,14.8511725 0,13.0143617 0,10.9239946 Z M5.69481646,7.20321666 C5.36120464,7.20321666 5.0913108,7.48449163 5.0913108,7.83111332 L5.0913108,10.9239946 C5.0913108,11.2706163 5.36123794,11.5517873 5.69481646,11.5517873 L9.10980779,11.5517873 C9.44331969,11.5517873 9.71341336,11.2706163 9.71341336,10.9239946 C9.71341336,10.5770611 9.44331969,10.2958901 9.10980779,10.2958901 L6.29845535,10.2958901 L6.29845535,7.83111332 C6.29845535,7.48449163 6.02792867,7.20321666 5.69481646,7.20321666 Z M11.9810145,9.97106217 C11.9768843,9.80682918 11.85168,9.67371038 11.6944001,9.66529084 C11.5436153,9.65628228 11.3994921,9.77620008 11.3796072,9.93980939 L11.3151898,10.4753683 L11.202376,11.100701 C11.1557449,11.3175994 11.1076816,11.5417393 11.0181167,11.7854555 L10.8828534,12.1971121 L10.6910999,12.6358982 C10.6225522,12.8157923 10.5186316,12.9969336 10.4083825,13.1888506 C10.3524585,13.2859352 10.2959684,13.3840245 10.2430088,13.484366 C10.1874846,13.562394 10.1331261,13.6416347 10.0792006,13.7215337 C9.93704254,13.9298047 9.80317813,14.1266071 9.62341545,14.3226126 C9.46726806,14.5253745 9.27987787,14.7066198 9.08222885,14.8982942 C9.02394005,14.9548403 8.96605093,15.0109359 8.90876136,15.0678977 C8.84457706,15.1186921 8.7809923,15.1700756 8.71817362,15.2210779 C8.50793422,15.3914782 8.31005204,15.5520385 8.07419888,15.6929185 C7.89230449,15.8248246 7.68439664,15.9315414 7.48374991,16.0341351 C7.39988065,16.0771336 7.31661092,16.1197511 7.23590591,16.1635465 C7.13355076,16.2018329 7.03392686,16.2430297 6.93566859,16.283984 C6.75177573,16.3603836 6.57830824,16.4322441 6.39444869,16.4744458 L5.99538686,16.5895475 L5.60311984,16.6591906 C5.40347235,16.7038176 5.22787315,16.7140735 5.05776976,16.7247105 L4.73804732,16.7501077 L4.69288183,16.748895 L4.69288183,15.2839645 C4.69288183,15.157221 4.61943793,15.0425005 4.50652418,14.993785 C4.39331067,14.9454159 4.26407605,14.9720605 4.17734231,15.0617649 L1.58062591,17.7629817 C1.52413573,17.8219532 1.49232669,17.9018522 1.49232669,17.9849735 C1.49232669,18.0681294 1.52413573,18.1479938 1.58062591,18.2069652 L4.17740892,20.9082859 C4.23529804,20.9680889 4.31247242,21 4.3909125,21 C4.4297828,21 4.46918604,20.9922041 4.5065908,20.9762313 C4.61950455,20.9274811 4.69294844,20.8127952 4.69294844,20.6858091 L4.69294844,19.1549429 L5.24872389,19.0490577 C5.50572757,18.993759 5.82574977,18.9245317 6.13218236,18.8063463 L6.48940948,18.6816124 L7.08162376,18.4210917 C7.33126639,18.318706 7.5677191,18.1749501 7.79627784,18.0359065 C7.89393658,17.9762767 7.99272778,17.9163005 8.09355076,17.8587497 C8.10457567,17.8523744 8.1148345,17.8454101 8.12545972,17.8378221 C8.20419957,17.7788507 8.28413851,17.7206762 8.36467698,17.6623631 C8.60859066,17.4862111 8.86039831,17.3037184 9.07596697,17.0929874 C9.34213032,16.8724163 9.5746527,16.6168503 9.79948095,16.3694268 L9.96268961,16.1908494 C9.96958435,16.1830535 9.97647908,16.1750844 9.98314066,16.1664916 L10.1308278,15.9721493 C10.331841,15.7092032 10.540315,15.4364171 10.6974284,15.1566667 C10.8738269,14.8945176 11.0065256,14.6213156 11.1348942,14.3567065 C11.1789938,14.2653389 11.2230935,14.1748375 11.2679925,14.0863458 C11.273888,14.0740802 11.279617,14.0617801 11.2841135,14.0490988 C11.3242828,13.9368729 11.3671834,13.827315 11.4097176,13.7197666 C11.5034127,13.4813863 11.6001055,13.2352447 11.6546305,12.9935727 L11.794024,12.478491 L11.8731969,12.0254643 C11.9363486,11.7268652 11.954668,11.4535594 11.9708556,11.212615 L12,10.8028295 L11.9810145,9.97106217 Z" id="Shape"></path>
            </g>
        </g>
    </g>
</svg>